<?xml version="1.0" standalone="no"?>
<!DOCTYPE svg PUBLIC "-//W3C//DTD SVG 20010904//EN"
 "http://www.w3.org/TR/2001/REC-SVG-20010904/DTD/svg10.dtd">
<svg version="1.0" xmlns="http://www.w3.org/2000/svg"
 width="280" height="264" viewBox="0 0 1024.000000 1024.000000"
 preserveAspectRatio="xMidYMid meet">

<g transform="translate(0.000000,1024.000000) scale(0.100000,-0.100000)"
fill="#E5E5E5" stroke="none">
<path d="M0 5120 l0 -5120 5120 0 5120 0 0 5120 0 5120 -5120 0 -5120 0 0
-5120z m2638 1244 c145 -29 287 -115 385 -234 48 -57 112 -187 132 -265 20
-78 20 -272 0 -350 -40 -158 -156 -319 -289 -403 -217 -138 -525 -144 -746
-15 -77 45 -183 149 -227 224 -99 165 -127 418 -67 597 112 334 450 520 812
446z m3827 -14 c206 -65 376 -231 441 -433 38 -119 44 -281 15 -397 -33 -133
-82 -222 -176 -315 -138 -138 -283 -196 -495 -198 -204 -1 -354 58 -488 191
-139 139 -192 261 -200 462 -4 105 -1 139 16 207 27 108 62 179 128 262 91
114 234 204 375 236 95 22 293 14 384 -15z m-2201 -14 c127 -36 217 -110 273
-224 26 -54 28 -65 28 -187 0 -119 -2 -135 -26 -185 -39 -81 -98 -142 -176
-181 -38 -19 -69 -34 -70 -35 -2 0 61 -106 138 -235 78 -129 144 -240 146
-247 4 -10 -25 -12 -138 -10 l-143 3 -139 233 -140 232 -113 0 -114 0 0 -235
0 -235 -140 0 -140 0 0 666 0 666 348 -4 c287 -4 357 -8 406 -22z m946 -641
l0 -665 -135 0 -135 0 0 665 0 665 135 0 135 0 0 -665z m2541 355 c115 -168
250 -367 301 -443 l93 -139 3 446 2 446 135 0 135 0 0 -665 0 -665 -143 0
-144 0 -304 446 -304 446 -3 -446 -2 -446 -135 0 -135 0 0 665 0 666 147 -3
147 -3 207 -305z m-947 -1461 c60 -22 120 -63 142 -96 16 -25 15 -26 -36 -78
l-53 -53 -49 34 c-79 54 -164 69 -233 40 -38 -16 -55 -42 -55 -84 0 -42 45
-77 133 -102 184 -53 252 -91 288 -161 71 -139 -2 -325 -147 -372 -168 -56
-360 -14 -465 101 l-42 44 61 61 61 61 40 -37 c56 -51 115 -78 180 -84 104
-10 173 42 155 115 -12 46 -45 66 -177 104 -197 57 -268 128 -267 265 2 140
87 238 229 263 63 11 176 1 235 -21z m-3354 -356 l5 -358 198 -3 197 -2 0 -80
0 -80 -290 0 -290 0 0 438 c0 241 2 441 5 444 3 2 42 4 88 2 l82 -3 5 -358z
m1198 357 c17 0 27 -11 41 -42 21 -49 295 -781 306 -815 6 -23 5 -23 -87 -23
l-94 0 -33 90 -33 90 -176 -2 -175 -3 -31 -85 -32 -85 -98 -3 c-91 -3 -98 -1
-91 15 4 10 77 200 162 423 85 223 159 415 164 428 8 22 13 23 81 18 40 -3 83
-5 96 -6z m1156 -14 c104 -31 165 -111 166 -219 0 -69 -19 -119 -60 -157 l-31
-29 30 -15 c90 -47 127 -185 77 -291 -26 -57 -70 -98 -136 -129 -42 -19 -62
-21 -285 -21 l-240 0 -3 437 -2 437 52 3 c133 8 382 -2 432 -16z"/>
<path d="M2410 6120 c-142 -24 -266 -135 -310 -277 -25 -81 -27 -216 -4 -294
93 -319 513 -392 716 -124 58 77 81 163 76 287 -3 90 -7 111 -35 170 -59 126
-170 213 -302 238 -60 11 -76 11 -141 0z"/>
<path d="M6178 6120 c-117 -21 -231 -103 -285 -208 -44 -82 -56 -148 -51 -259
5 -82 10 -103 41 -167 44 -88 103 -146 195 -189 61 -29 76 -32 167 -32 116 0
177 18 252 75 61 46 106 105 134 177 32 82 33 263 3 339 -77 190 -264 299
-456 264z"/>
<path d="M3790 5925 l0 -195 150 0 c212 0 279 19 334 93 31 43 30 159 -2 205
-49 67 -143 92 -354 92 l-128 0 0 -195z"/>
<path d="M4512 4218 c-29 -84 -52 -156 -52 -160 0 -5 49 -8 109 -8 61 0 112 3
114 8 5 9 -103 312 -112 312 -4 0 -30 -69 -59 -152z"/>
<path d="M5500 4335 l0 -105 88 0 c48 0 104 5 124 10 48 14 78 52 78 99 0 73
-56 101 -202 101 l-88 0 0 -105z"/>
<path d="M5513 4084 c-9 -4 -13 -36 -13 -110 l0 -104 110 0 c130 0 180 15 203
62 16 33 13 84 -6 107 -23 27 -81 42 -181 47 -55 2 -107 1 -113 -2z"/>
</g>
</svg>
